<?xml version="1.0" encoding="UTF-8" standalone="no"?>
<!-- Created with Inkscape (http://www.inkscape.org/) -->

<svg
   xmlns:dc="http://purl.org/dc/elements/1.1/"
   xmlns:cc="http://creativecommons.org/ns#"
   xmlns:rdf="http://www.w3.org/1999/02/22-rdf-syntax-ns#"
   xmlns:svg="http://www.w3.org/2000/svg"
   xmlns="http://www.w3.org/2000/svg"
   xmlns:sodipodi="http://sodipodi.sourceforge.net/DTD/sodipodi-0.dtd"
   xmlns:inkscape="http://www.inkscape.org/namespaces/inkscape"
   width="281.22574mm"
   height="134.50473mm"
   viewBox="0 0 996.46915 476.59156"
   id="svg2"
   version="1.1"
   inkscape:version="0.91 r13725"
   sodipodi:docname="planning.svg">
  <defs
     id="defs4" />
  <sodipodi:namedview
     id="base"
     pagecolor="#ffffff"
     bordercolor="#666666"
     borderopacity="1.0"
     inkscape:pageopacity="0.0"
     inkscape:pageshadow="2"
     inkscape:zoom="0.98994949"
     inkscape:cx="452.91314"
     inkscape:cy="265.97434"
     inkscape:document-units="px"
     inkscape:current-layer="layer1"
     showgrid="false"
     inkscape:snap-global="false"
     inkscape:window-width="1855"
     inkscape:window-height="1056"
     inkscape:window-x="65"
     inkscape:window-y="24"
     inkscape:window-maximized="1"
     fit-margin-top="0"
     fit-margin-left="0"
     fit-margin-right="0"
     fit-margin-bottom="0" />
  <metadata
     id="metadata7">
    <rdf:RDF>
      <cc:Work
         rdf:about="">
        <dc:format>image/svg+xml</dc:format>
        <dc:type
           rdf:resource="http://purl.org/dc/dcmitype/StillImage" />
        <dc:title></dc:title>
      </cc:Work>
    </rdf:RDF>
  </metadata>
  <g
     inkscape:label="Layer 1"
     inkscape:groupmode="layer"
     id="layer1"
     transform="translate(-8.5118195,-388.69199)">
    <rect
       style="opacity:0;fill:#386880;fill-opacity:1"
       id="rect8068"
       width="857.61951"
       height="14.142125"
       x="113.13708"
       y="388.69199" />
    <rect
       style="opacity:0;fill:#386880;fill-opacity:1"
       id="rect8070"
       width="563.6651"
       height="100.0051"
       x="224.25386"
       y="431.11838" />
    <path
       style="opacity:0;fill:#386880;fill-opacity:1"
       id="path8080"
       d="m 439.27911,708.49319 c -5.63023,-2.57324 -11.05967,-5.55586 -16.49602,-8.50913 -8.50015,-4.56588 -17.07509,-8.96251 -25.88334,-12.90301 -10.40839,-4.63158 -21.3314,-7.91221 -32.06721,-11.6714 -10.37074,-3.45756 -20.82608,-6.68168 -31.33449,-9.69754 -10.40414,-2.85159 -20.76021,-5.85253 -31.18394,-8.63438 -10.89166,-3.22998 -21.85372,-6.1998 -32.80856,-9.20493 -8.80505,-2.53479 -17.83711,-4.13693 -26.66016,-6.59866 -3.25653,-0.93654 -6.79234,-1.60084 -9.49628,-3.80542 -1.46945,-1.19807 -1.84272,-1.94573 -2.94068,-3.48461 -3.04496,-5.5946 -3.11516,-12.12979 -3.38161,-18.34155 -0.15669,-7.19452 -0.18273,-14.3912 -0.2248,-21.58712 0.11746,-4.06632 -0.44672,-8.16932 0.38047,-12.17665 1.95162,-5.04941 6.45594,-8.54834 10.42545,-11.99815 3.8315,-3.2605 7.95867,-6.21997 12.33426,-8.71226 10.37442,-5.90914 14.99139,-9.10613 24.59833,-12.68798 2.69216,-1.00374 5.44706,-1.83041 8.1706,-2.74561 21.97846,-6.49764 45.04991,-7.0191 67.78262,-7.78765 18.28079,-0.84693 36.65588,0.29013 54.6365,3.77125 10.55654,2.0438 15.72807,3.76495 26.0547,6.71556 20.30029,6.59991 40.10874,14.88247 58.88446,25.06482 3.27875,1.77811 6.47273,3.70827 9.7091,5.5624 13.09837,7.93577 25.46131,17.34096 35.34656,29.12938 1.81616,2.16582 3.45323,4.47571 5.17984,6.71357 6.73365,9.41336 11.69932,19.90873 15.16743,30.93079 2.14659,6.82211 2.85895,10.5494 4.45799,17.50689 3.79648,19.03987 4.14249,38.51494 4.51815,57.85718 0.22842,19.65836 0.14463,39.31878 0.20204,58.97823 0.0278,14.65289 0.0811,29.30548 0.21252,43.9578 0.0473,7.21748 0.21203,14.43341 0.29522,21.6504 0.0304,2.67086 0.10297,5.34107 0.13352,8.01192 0.10401,8.37877 -1.56269,4.51081 -14.74524,11.48624 -16.00725,-0.0932 -32.0517,0.24189 -48.04645,-0.55905 -6.28757,-0.31485 -12.5591,-0.89429 -18.83865,-1.34144 -50.32081,-4.77896 -99.44984,-17.12055 -148.26232,-29.73187 -31.69668,-8.59737 -62.99771,-18.61605 -93.8628,-29.83187 -12.42926,-4.51657 -22.46805,-8.48524 -34.678,-13.22825 -15.68503,-6.03226 -31.01388,-12.92208 -46.44922,-19.55152 -5.41926,-2.43803 -6.61868,-3.11472 -7.33039,-9.08825 -0.22338,-4.88689 -0.327,-9.84755 0.97331,-14.61589 1.06335,-3.89942 2.33783,-6.28809 4.01994,-10.00335 5.12969,-10.32305 11.56938,-19.92357 18.81886,-28.86392 9.46073,-10.36751 22.47323,-17.01971 35.42342,-22.06906 10.25535,-3.98421 21.09047,-5.40987 31.97573,-6.28576 11.74215,-0.71123 23.5125,-0.62998 35.27057,-0.63809 10.77903,0.1183 21.5713,-0.42018 32.25703,-1.84654 5.32217,-0.63565 10.52226,-1.95034 15.76072,-3.04011 1.45097,-0.2429 0.7689,-0.13552 2.04548,-0.32671 0,0 -11.98896,8.98775 -11.98896,8.98775 l 0,0 c -1.19592,0.18175 -0.5549,0.0777 -1.92206,0.3183 -5.09728,0.94955 -10.16989,2.06955 -15.33735,2.58958 -10.66312,1.19485 -21.39744,1.70436 -32.12795,1.53832 -11.7565,0.008 -23.52762,-0.0116 -35.26334,0.77803 -10.85089,0.95866 -21.62903,2.57884 -31.80282,6.68296 -1.57338,0.65184 -3.16959,1.25108 -4.72013,1.95551 -1.48257,0.67356 -5.70705,3.11095 -4.3738,2.176 2.56016,-1.79532 5.29453,-3.34386 8.07612,-4.77227 1.34652,-0.69147 -2.54253,1.64744 -3.75519,2.55337 -3.19533,2.3871 -3.60985,3.01092 -6.39744,5.82073 -7.44065,8.775 -14.0641,18.24886 -19.15251,28.59773 -1.49339,3.29618 -2.93559,6.12198 -3.92761,9.59895 -1.30779,4.58369 -1.16818,9.32847 -0.82042,14.02764 0.65494,5.43505 1.52385,5.36173 6.32645,7.96179 14.59142,7.32585 29.2332,14.57284 44.28995,20.90853 13.48367,5.66497 19.71556,8.40305 33.78954,13.77315 30.50365,11.63907 61.62475,21.60182 93.10882,30.23 8.59784,2.23873 17.17284,4.56716 25.79354,6.7162 40.61014,10.12363 81.75561,18.76773 123.55486,21.99949 6.41525,0.32598 12.82462,0.80241 19.24574,0.97793 7.96082,0.21762 21.31672,-0.0622 29.66952,-0.26393 4.10158,-0.0991 12.06174,-0.29717 16.5829,-0.65039 1.30046,-0.1016 2.58954,-0.31679 3.88431,-0.47518 -3.7707,2.30808 -7.65369,4.44203 -11.3121,6.92425 -0.24416,0.16566 0.6053,0.28962 0.87053,0.16033 0.0634,-0.0309 -0.16299,-2.61156 0.0223,-2.77443 0.0303,-2.71603 0.1019,-5.43143 0.13226,-8.14747 0.0832,-7.31968 0.24952,-14.63825 0.30683,-21.95831 0.15215,-14.74688 0.24393,-29.49411 0.3403,-44.24147 0.13899,-19.67886 0.22968,-39.35876 -0.0234,-59.03729 -0.37467,-19.23398 -0.80432,-38.58712 -4.57316,-57.51965 -1.59525,-7.01393 -2.23315,-10.49267 -4.40818,-17.35945 -3.44454,-10.87476 -8.38656,-21.22235 -15.0252,-30.5177 -1.70463,-2.20841 -3.32068,-4.48812 -5.11388,-6.62524 -9.75888,-11.63058 -21.87691,-21.04222 -34.69542,-29.05647 -3.18631,-1.863 -6.32808,-3.80433 -9.55891,-5.58898 -18.58998,-10.26877 -38.27886,-18.53116 -58.48528,-25.02365 -10.05065,-2.83176 -15.67016,-4.64503 -25.92884,-6.62014 -17.97242,-3.46023 -36.31847,-4.40443 -54.57854,-3.51506 -22.92097,0.88483 -46.17375,1.71079 -68.23802,8.61767 -2.76455,0.98807 -5.56297,1.88603 -8.29363,2.9642 -2.35706,0.93066 -5.36046,5.02403 -6.96002,3.05852 -1.5529,-1.90816 4.21723,-2.54187 6.23504,-3.94936 1.50487,-1.04971 -3.15452,1.87664 -4.69421,2.87457 -1.40317,0.90945 -2.78824,1.8493 -4.1312,2.8455 -1.1363,0.84289 -2.20079,1.77849 -3.30118,2.66774 -3.80217,3.27127 -7.88296,6.58063 -10.38453,11.00692 -1.18686,3.85387 -0.49335,7.98677 -0.76263,11.9637 -0.0905,7.19561 -0.19078,14.39512 0.0684,21.58862 0.27628,5.89864 0.33233,12.14291 3.21503,17.4583 1.03253,1.38038 1.31241,1.96215 2.67801,3.005 2.61362,1.99592 5.98361,2.59959 9.02777,3.60679 8.70332,2.56482 17.63698,4.22731 26.34087,6.7973 10.94431,2.99754 21.85539,6.10504 32.76694,9.21829 10.45717,2.74177 20.83935,5.73071 31.25447,8.6259 10.5022,3.07081 20.9817,6.2552 31.33616,9.7923 10.76669,3.80508 21.72749,7.10832 32.18729,11.73103 8.8724,3.97257 17.53895,8.36123 26.1662,12.83921 5.53557,2.93515 11.07051,5.91658 16.92644,8.17606 0,0 -12.48333,8.21358 -12.48333,8.21358 z"
       inkscape:connector-curvature="0" />
    <path
       style="fill:none;fill-rule:evenodd;stroke:#3f98c8;stroke-width:2;stroke-linecap:butt;stroke-linejoin:miter;stroke-miterlimit:4;stroke-dasharray:none;stroke-opacity:1"
       d="M 243.84686,492.40247 1000.046,494.0825"
       id="path8084"
       inkscape:connector-curvature="0" />
    <path
       style="fill:none;fill-rule:evenodd;stroke:#3f98c8;stroke-width:2;stroke-linecap:butt;stroke-linejoin:miter;stroke-miterlimit:4;stroke-dasharray:none;stroke-opacity:1"
       d="m 244.90714,538.92794 756.19906,1.68003"
       id="path8084-3"
       inkscape:connector-curvature="0" />
    <path
       style="fill:none;fill-rule:evenodd;stroke:#3f98c8;stroke-width:2;stroke-linecap:butt;stroke-linejoin:miter;stroke-miterlimit:4;stroke-dasharray:none;stroke-opacity:1"
       d="m 245.18381,590.82273 756.19909,1.68003"
       id="path8084-7"
       inkscape:connector-curvature="0" />
    <path
       style="fill:none;fill-rule:evenodd;stroke:#3f98c8;stroke-width:2;stroke-linecap:butt;stroke-linejoin:miter;stroke-miterlimit:4;stroke-dasharray:none;stroke-opacity:1"
       d="m 246.2441,639.3482 756.1991,1.68003"
       id="path8084-3-5"
       inkscape:connector-curvature="0" />
    <path
       style="fill:none;fill-rule:evenodd;stroke:#3f98c8;stroke-width:2;stroke-linecap:butt;stroke-linejoin:miter;stroke-miterlimit:4;stroke-dasharray:none;stroke-opacity:1"
       d="m 246.38242,684.33177 756.19908,1.68004"
       id="path8084-6"
       inkscape:connector-curvature="0" />
    <path
       style="fill:none;fill-rule:evenodd;stroke:#3f98c8;stroke-width:2;stroke-linecap:butt;stroke-linejoin:miter;stroke-miterlimit:4;stroke-dasharray:none;stroke-opacity:1"
       d="m 247.4427,734.85725 756.1991,1.68003"
       id="path8084-3-2"
       inkscape:connector-curvature="0" />
    <path
       style="fill:none;fill-rule:evenodd;stroke:#3f98c8;stroke-width:2;stroke-linecap:butt;stroke-linejoin:miter;stroke-miterlimit:4;stroke-dasharray:none;stroke-opacity:1"
       d="m 247.71937,780.75203 756.19913,1.68004"
       id="path8084-7-1"
       inkscape:connector-curvature="0" />
    <path
       style="fill:none;fill-rule:evenodd;stroke:#3f98c8;stroke-width:2;stroke-linecap:butt;stroke-linejoin:miter;stroke-miterlimit:4;stroke-dasharray:none;stroke-opacity:1"
       d="m 248.77965,825.2775 756.19915,1.68004"
       id="path8084-3-5-2"
       inkscape:connector-curvature="0" />
    <rect
       style="opacity:0;fill:#800080;fill-opacity:1;stroke:#000000;stroke-opacity:1"
       id="rect8181"
       width="126.26907"
       height="53.538086"
       x="375.77673"
       y="417.98639" />
    <rect
       style="opacity:1;fill:#7292dd;fill-opacity:1;stroke:#205571;stroke-width:2;stroke-miterlimit:4;stroke-dasharray:none;stroke-opacity:1"
       id="rect8209"
       width="66.523827"
       height="39.65831"
       x="295.08594"
       y="472.40317" />
    <flowRoot
       xml:space="preserve"
       id="flowRoot9363"
       style="font-style:normal;font-weight:normal;font-size:40px;line-height:125%;font-family:sans-serif;letter-spacing:0px;word-spacing:0px;fill:#000000;fill-opacity:1;stroke:none;stroke-width:1px;stroke-linecap:butt;stroke-linejoin:miter;stroke-opacity:1"
       transform="translate(0,308.26772)"><flowRegion
         id="flowRegion9365"><rect
           id="rect9367"
           width="195.96959"
           height="40.406101"
           x="24.243662"
           y="134.9725" /></flowRegion><flowPara
         id="flowPara9369"></flowPara></flowRoot>    <flowRoot
       xml:space="preserve"
       id="flowRoot9371"
       style="font-style:normal;font-variant:normal;font-weight:normal;font-stretch:normal;font-size:30px;line-height:125%;font-family:FreeSerif;-inkscape-font-specification:'FreeSerif, Normal';text-align:start;letter-spacing:0px;word-spacing:0px;writing-mode:lr-tb;text-anchor:start;fill:#000000;fill-opacity:1;stroke:none;stroke-width:1px;stroke-linecap:butt;stroke-linejoin:miter;stroke-opacity:1"
       transform="translate(-25.274118,337.56214)"><flowRegion
         id="flowRegion9373"><rect
           id="rect9375"
           width="284.86304"
           height="53.538097"
           x="33.335033"
           y="131.94205"
           style="font-style:normal;font-variant:normal;font-weight:normal;font-stretch:normal;font-size:30px;line-height:125%;font-family:FreeSerif;-inkscape-font-specification:'FreeSerif, Normal';text-align:start;writing-mode:lr-tb;text-anchor:start" /></flowRegion><flowPara
         id="flowPara9377">Test unitaires</flowPara></flowRoot>    <flowRoot
       xml:space="preserve"
       id="flowRoot9371-5"
       style="font-style:normal;font-variant:normal;font-weight:normal;font-stretch:normal;font-size:30px;line-height:125%;font-family:FreeSerif;-inkscape-font-specification:'FreeSerif, Normal';text-align:start;letter-spacing:0px;word-spacing:0px;writing-mode:lr-tb;text-anchor:start;fill:#000000;fill-opacity:1;stroke:none;stroke-width:1px;stroke-linecap:butt;stroke-linejoin:miter;stroke-opacity:1"
       transform="translate(-24.9686,388.18254)"><flowRegion
         id="flowRegion9373-7"><rect
           id="rect9375-0"
           width="284.86304"
           height="53.538097"
           x="33.335033"
           y="131.94205"
           style="font-style:normal;font-variant:normal;font-weight:normal;font-stretch:normal;font-size:30px;line-height:125%;font-family:FreeSerif;-inkscape-font-specification:'FreeSerif, Normal';text-align:start;writing-mode:lr-tb;text-anchor:start" /></flowRegion><flowPara
         id="flowPara9377-8">Compilation</flowPara></flowRoot>    <flowRoot
       xml:space="preserve"
       id="flowRoot9371-5-9"
       style="font-style:normal;font-variant:normal;font-weight:normal;font-stretch:normal;font-size:30px;line-height:125%;font-family:FreeSerif;-inkscape-font-specification:'FreeSerif, Normal';text-align:start;letter-spacing:0px;word-spacing:0px;writing-mode:lr-tb;text-anchor:start;fill:#000000;fill-opacity:1;stroke:none;stroke-width:1px;stroke-linecap:butt;stroke-linejoin:miter;stroke-opacity:1"
       transform="translate(-25.112253,434.57502)"><flowRegion
         id="flowRegion9373-7-9"><rect
           id="rect9375-0-7"
           width="284.86304"
           height="53.538097"
           x="33.335033"
           y="131.94205"
           style="font-style:normal;font-variant:normal;font-weight:normal;font-stretch:normal;font-size:30px;line-height:125%;font-family:FreeSerif;-inkscape-font-specification:'FreeSerif, Normal';text-align:start;writing-mode:lr-tb;text-anchor:start" /></flowRegion><flowPara
         id="flowPara9377-8-8">Analyse de code</flowPara></flowRoot>    <flowRoot
       xml:space="preserve"
       id="flowRoot9371-5-9-2"
       style="font-style:normal;font-variant:normal;font-weight:normal;font-stretch:normal;font-size:30px;line-height:125%;font-family:FreeSerif;-inkscape-font-specification:'FreeSerif, Normal';text-align:start;letter-spacing:0px;word-spacing:0px;writing-mode:lr-tb;text-anchor:start;fill:#000000;fill-opacity:1;stroke:none;stroke-width:1px;stroke-linecap:butt;stroke-linejoin:miter;stroke-opacity:1"
       transform="translate(-22.551799,477.99658)"><flowRegion
         id="flowRegion9373-7-9-5"><rect
           id="rect9375-0-7-3"
           width="284.86304"
           height="53.538097"
           x="33.335033"
           y="131.94205"
           style="font-style:normal;font-variant:normal;font-weight:normal;font-stretch:normal;font-size:30px;line-height:125%;font-family:FreeSerif;-inkscape-font-specification:'FreeSerif, Normal';text-align:start;writing-mode:lr-tb;text-anchor:start" /></flowRegion><flowPara
         id="flowPara9377-8-8-4">Packaging</flowPara></flowRoot>    <flowRoot
       xml:space="preserve"
       id="flowRoot9371-5-9-2-9"
       style="font-style:normal;font-variant:normal;font-weight:normal;font-stretch:normal;font-size:30px;line-height:125%;font-family:FreeSerif;-inkscape-font-specification:'FreeSerif, Normal';text-align:start;letter-spacing:0px;word-spacing:0px;writing-mode:lr-tb;text-anchor:start;fill:#000000;fill-opacity:1;stroke:none;stroke-width:1px;stroke-linecap:butt;stroke-linejoin:miter;stroke-opacity:1"
       transform="translate(-23.925207,527.49406)"><flowRegion
         id="flowRegion9373-7-9-5-0"><rect
           id="rect9375-0-7-3-2"
           width="284.86304"
           height="53.538097"
           x="33.335033"
           y="131.94205"
           style="font-style:normal;font-variant:normal;font-weight:normal;font-stretch:normal;font-size:30px;line-height:125%;font-family:FreeSerif;-inkscape-font-specification:'FreeSerif, Normal';text-align:start;writing-mode:lr-tb;text-anchor:start" /></flowRegion><flowPara
         id="flowPara9377-8-8-4-0">Documentation</flowPara></flowRoot>    <flowRoot
       xml:space="preserve"
       id="flowRoot9371-5-9-2-9-1"
       style="font-style:normal;font-variant:normal;font-weight:normal;font-stretch:normal;font-size:30px;line-height:125%;font-family:FreeSerif;-inkscape-font-specification:'FreeSerif, Normal';text-align:start;letter-spacing:0px;word-spacing:0px;writing-mode:lr-tb;text-anchor:start;fill:#000000;fill-opacity:1;stroke:none;stroke-width:1px;stroke-linecap:butt;stroke-linejoin:miter;stroke-opacity:1"
       transform="translate(-23.806468,575.06077)"><flowRegion
         id="flowRegion9373-7-9-5-0-9"><rect
           id="rect9375-0-7-3-2-6"
           width="284.86304"
           height="53.538097"
           x="33.335033"
           y="131.94205"
           style="font-style:normal;font-variant:normal;font-weight:normal;font-stretch:normal;font-size:30px;line-height:125%;font-family:FreeSerif;-inkscape-font-specification:'FreeSerif, Normal';text-align:start;writing-mode:lr-tb;text-anchor:start" /></flowRegion><flowPara
         id="flowPara9377-8-8-4-0-2">Déploiement</flowPara></flowRoot>    <flowRoot
       xml:space="preserve"
       id="flowRoot9371-5-9-2-9-1-1"
       style="font-style:normal;font-variant:normal;font-weight:normal;font-stretch:normal;font-size:30px;line-height:125%;font-family:FreeSerif;-inkscape-font-specification:'FreeSerif, Normal';text-align:start;letter-spacing:0px;word-spacing:0px;writing-mode:lr-tb;text-anchor:start;fill:#000000;fill-opacity:1;stroke:none;stroke-width:1px;stroke-linecap:butt;stroke-linejoin:miter;stroke-opacity:1"
       transform="translate(-22.133217,624.4837)"><flowRegion
         id="flowRegion9373-7-9-5-0-9-2"><rect
           id="rect9375-0-7-3-2-6-0"
           width="284.86304"
           height="53.538097"
           x="33.335033"
           y="131.94205"
           style="font-style:normal;font-variant:normal;font-weight:normal;font-stretch:normal;font-size:30px;line-height:125%;font-family:FreeSerif;-inkscape-font-specification:'FreeSerif, Normal';text-align:start;writing-mode:lr-tb;text-anchor:start" /></flowRegion><flowPara
         id="flowPara9523">Recette</flowPara></flowRoot>    <flowRoot
       xml:space="preserve"
       id="flowRoot9371-5-9-2-9-1-1-3"
       style="font-style:normal;font-variant:normal;font-weight:normal;font-stretch:normal;font-size:30px;line-height:125%;font-family:FreeSerif;-inkscape-font-specification:'FreeSerif, Normal';text-align:start;letter-spacing:0px;word-spacing:0px;writing-mode:lr-tb;text-anchor:start;fill:#000000;fill-opacity:1;stroke:none;stroke-width:1px;stroke-linecap:butt;stroke-linejoin:miter;stroke-opacity:1"
       transform="translate(-20.407875,668.68995)"><flowRegion
         id="flowRegion9373-7-9-5-0-9-2-1"><rect
           id="rect9375-0-7-3-2-6-0-1"
           width="284.86304"
           height="53.538097"
           x="33.335033"
           y="131.94205"
           style="font-style:normal;font-variant:normal;font-weight:normal;font-stretch:normal;font-size:30px;line-height:125%;font-family:FreeSerif;-inkscape-font-specification:'FreeSerif, Normal';text-align:start;writing-mode:lr-tb;text-anchor:start" /></flowRegion><flowPara
         id="flowPara9551">Mise en production</flowPara></flowRoot>    <rect
       style="opacity:0.98000004;fill:#7292dd;fill-opacity:1;stroke:#205571;stroke-width:2;stroke-miterlimit:4;stroke-dasharray:none;stroke-dashoffset:0;stroke-opacity:1"
       id="rect8209-0"
       width="16.012447"
       height="40.664711"
       x="363.7883"
       y="519.88251" />
    <rect
       style="opacity:1;fill:#7292dd;fill-opacity:1;stroke:#205571;stroke-width:2;stroke-miterlimit:4;stroke-dasharray:none;stroke-opacity:1"
       id="rect8209-0-5-6-7-7-4"
       width="116.40674"
       height="39.033592"
       x="451.41858"
       y="-801.92462"
       transform="scale(1,-1)" />
    <rect
       style="opacity:0.98000004;fill:#7292dd;fill-opacity:1;stroke:#205571;stroke-width:2;stroke-miterlimit:4;stroke-dasharray:none;stroke-dashoffset:0;stroke-opacity:1"
       id="rect8209-0-6"
       width="16.012447"
       height="40.664711"
       x="380.9025"
       y="569.27844" />
    <rect
       style="opacity:0.98000004;fill:#7292dd;fill-opacity:1;stroke:#205571;stroke-width:2;stroke-miterlimit:4;stroke-dasharray:none;stroke-dashoffset:0;stroke-opacity:1"
       id="rect8209-0-6-4"
       width="16.012447"
       height="40.664711"
       x="399.08527"
       y="617.70483" />
    <rect
       style="opacity:0.98000004;fill:#7292dd;fill-opacity:1;stroke:#205571;stroke-width:2;stroke-miterlimit:4;stroke-dasharray:none;stroke-dashoffset:0;stroke-opacity:1"
       id="rect8209-0-6-4-7"
       width="16.012447"
       height="40.664711"
       x="416.25787"
       y="665.18201" />
    <rect
       style="opacity:0.98000004;fill:#7292dd;fill-opacity:1;stroke:#205571;stroke-width:2;stroke-miterlimit:4;stroke-dasharray:none;stroke-dashoffset:0;stroke-opacity:1"
       id="rect8209-0-6-4-7-4"
       width="16.012447"
       height="40.664711"
       x="434.44061"
       y="713.58813" />
    <rect
       style="opacity:0.98000004;fill:#7292dd;fill-opacity:1;stroke:#205571;stroke-width:2;stroke-miterlimit:4;stroke-dasharray:none;stroke-dashoffset:0;stroke-opacity:1"
       id="rect8209-0-6-4-7-4-8"
       width="16.012447"
       height="40.664711"
       x="570.81122"
       y="809.53235" />
  </g>
</svg>
